<svg fill="white" width="100%" height="100%" xmlns="http://www.w3.org/2000/svg"
                    viewBox="0 0 1366 144.07" style="transform: rotate(180deg);">
    <g id="Group_2555" data-name="Group 2555" transform="translate(-2 -883.798)">
        <path id="Path_1018" data-name="Path 1018"
            d="M-6667,8779.849l.237,137.228s116.586,19.033,258.813-7.165,168.112-19.393,216.706-11.389,156.427,30.319,251.545,24.341,112.712-10.229,206.744-26.436c44.413-7.963,80.326-8.652,143.665,2.665s43.768,9.251,96.28,16.225,141.524,9.428,191.772,5.313c.441-25.283.134-140.833.134-140.833Z"
            transform="translate(6669 -7896)" fill="#a81411"></path>
        <path id="Intersection_2" data-name="Intersection 2"
            d="M475.586,66.933c-48.593-8-74.478-14.809-216.7,11.39S.069,85.488.069,85.488L0,45.672c3.168.705,50.538,11.041,100.867,10.151,52.1-.921,85.809-1.112,172.117-25.839S377.7-2.58,415.328.808,534.6,31.05,561.671,38.471s131.941,30.2,237.477,8.459S950.888-5.27,1014.935.78s118.112,43.2,252.713,54.69c39.879,3.372,74.566-2.713,97.622-3.25.182.031.362.066.539.1-.03,16.175-.095,29.813-.214,36.717-50.248,4.113-139.261,1.661-191.774-5.314s-32.938-4.907-96.279-16.224-99.252-10.628-143.666-2.666C839.845,81.044,822.25,85.3,727.133,91.274c-11.013.692-22.182,1.005-33.424,1C607.853,92.277,518.554,74.01,475.586,66.933Z"
            transform="translate(2.169 935.589)" fill="#ce2121"></path>
        <path id="Intersection_1" data-name="Intersection 1"
            d="M475.545,35.373c-48.593-8.005-74.479-14.809-216.705,11.388S.026,53.927.026,53.927L0,38.627c3.145-.06,40.968-.84,69.246-4.01C98.771,31.306,175.378,22.942,240.807,8.924s138.122-7.7,182.737,0S600.525,46.341,708.525,41.848,899.651,26.5,969.834,13.147s92.625-20.529,202.48-1.722c159.068,26.209,187.913,27.02,193.4,26.1-.037,8.617-.09,15.619-.166,19.958-50.249,4.116-139.262,1.661-191.774-5.312s-32.939-4.909-96.279-16.226-99.252-10.626-143.664-2.664C839.8,49.484,822.208,53.735,727.09,59.713c-11.013.692-22.183,1-33.424,1C607.81,60.716,518.512,42.449,475.545,35.373Z"
            transform="translate(2.21 967.15)" fill="#c22323"></path>
    </g>
</svg>